<?xml version="1.0" encoding="UTF-8"?>
<svg xmlns="http://www.w3.org/2000/svg" width="56" height="56" viewBox="0 0 56 56" fill="none">
  <circle cx="28" cy="28" r="28" fill="white"></circle>
  <g clip-path="url(#clip0_9197_4049)">
    <path d="M26.7604 18.1927C25.1304 18.1927 23.8047 16.867 23.8047 15.237C23.8047 13.607 25.1304 12.2812 26.7604 12.2812C28.3904 12.2812 29.7161 13.607 29.7161 15.237C29.7161 16.867 28.3904 18.1927 26.7604 18.1927ZM26.7604 13.9955C26.0761 13.9955 25.519 14.5527 25.519 15.237C25.519 15.9213 26.0761 16.4784 26.7604 16.4784C27.4447 16.4784 28.0018 15.9213 28.0018 15.237C28.0018 14.5527 27.4447 13.9955 26.7604 13.9955Z" fill="#C97A4F"></path>
    <path d="M28.0034 8.90625C17.4734 8.90625 8.90625 17.4734 8.90625 28.0034C8.90625 29.0791 8.99625 30.1334 9.16768 31.162C9.26482 31.742 9.38768 32.3148 9.53625 32.8762C9.77196 33.7691 10.0705 34.6362 10.4277 35.4734C10.6777 36.0605 10.9577 36.632 11.2634 37.1877C11.4534 37.532 11.6534 37.8705 11.8634 38.202C12.1891 38.7148 12.5377 39.212 12.9105 39.6905C12.9334 39.722 12.9577 39.7534 12.982 39.7834C13.4548 40.3848 13.9634 40.9577 14.5034 41.4977C16.5277 43.5234 19.0048 45.0977 21.7662 46.0548C22.3205 46.2462 22.8848 46.4134 23.4605 46.5548C24.9177 46.912 26.4391 47.1005 28.0034 47.1005C28.0848 47.1005 28.1648 47.1005 28.2463 47.0991C28.8234 47.092 29.3962 47.0591 29.9605 47.0005C36.3862 46.3434 41.8791 42.4877 44.8148 37.0562C45.0862 36.5548 45.3362 36.0391 45.562 35.512C46.1891 34.052 46.6391 32.4991 46.8848 30.8791C46.972 30.302 47.0334 29.7162 47.0677 29.122C47.0891 28.752 47.1005 28.3791 47.1005 28.0034C47.1005 17.4734 38.5334 8.90625 28.0034 8.90625ZM12.3105 35.4734C11.912 34.642 11.5791 33.7748 11.3163 32.8762H28.1834C27.7662 33.2448 27.3662 33.6305 26.9848 34.0348C26.5791 34.4605 26.1948 34.9062 25.8291 35.3677C25.802 35.4034 25.7748 35.4377 25.7477 35.4734H12.3105ZM21.952 26.9305L21.1091 25.7405C21.0077 25.5977 20.7962 25.5977 20.6948 25.7405L19.852 26.9305L16.8534 31.1605H14.872L21.0648 22.422C21.0791 22.4005 21.1105 22.4005 21.1262 22.422L27.3191 31.1605H24.952L21.9534 26.9291L21.952 26.9305ZM22.8491 31.162H18.9534L20.872 28.4548C20.8862 28.4348 20.9162 28.4348 20.932 28.4548L22.8491 31.162ZM23.222 39.7834C22.9862 40.342 22.7762 40.9134 22.5948 41.4977C22.312 42.4034 22.0948 43.3391 21.9491 44.2977C20.162 43.632 18.5134 42.6805 17.0591 41.4977C16.4091 40.9705 15.7991 40.3977 15.2334 39.7834C14.7748 39.2891 14.3477 38.7677 13.9505 38.222C13.7048 37.8862 13.472 37.5405 13.252 37.1877H24.5591C24.0491 38.0134 23.602 38.8805 23.222 39.7834ZM30.1291 45.2562C31.0362 40.1734 35.4905 36.302 40.8305 36.302C41.6205 36.302 42.392 36.3862 43.1348 36.5491C40.4791 41.2362 35.7091 44.5734 30.1291 45.2562ZM43.9248 34.9734C42.9348 34.722 41.8977 34.5877 40.8305 34.5877C34.4991 34.5877 29.2434 39.2877 28.3734 45.382C28.2505 45.3848 28.1262 45.3862 28.0034 45.3862C26.4848 45.3862 25.012 45.1905 23.6077 44.822C23.762 43.6748 24.0305 42.5634 24.4005 41.4977C24.602 40.912 24.8362 40.3391 25.0991 39.7834C25.5277 38.872 26.0348 38.0034 26.6105 37.1877C26.6934 37.0677 26.7791 36.9491 26.8677 36.832C27.2177 36.3605 27.5905 35.9062 27.9862 35.4734C27.9891 35.4691 27.9934 35.4648 27.9977 35.462C28.8805 34.4934 29.8734 33.6248 30.9548 32.8762C31.8705 32.242 32.8491 31.6934 33.8791 31.2434C36.0091 30.3091 38.3605 29.7905 40.8305 29.7905C42.3491 29.7905 43.822 29.9862 45.2262 30.3548C45.0077 31.9748 44.5634 33.5262 43.9248 34.9734ZM45.3734 28.622C43.9177 28.2648 42.3948 28.0763 40.8305 28.0763C39.2662 28.0763 37.662 28.2777 36.1691 28.6548V26.952C36.7505 27.3805 37.4691 27.6348 38.2448 27.6348C38.602 27.6348 38.9534 27.5805 39.292 27.4762C39.6691 27.3591 39.8777 26.9577 39.7605 26.582C39.6434 26.2048 39.242 25.9948 38.8662 26.1134C38.6662 26.1763 38.4577 26.2077 38.2462 26.2077C37.102 26.2077 36.1705 25.2762 36.1705 24.132V23.9891C36.752 24.4177 37.4705 24.672 38.2462 24.672C38.602 24.672 38.9548 24.6191 39.292 24.5134C39.6691 24.3962 39.8777 23.9948 39.7605 23.6191C39.6434 23.242 39.242 23.0334 38.8662 23.1505C38.6662 23.2134 38.4577 23.2448 38.2462 23.2448C37.102 23.2448 36.1705 22.3134 36.1705 21.1691V21.0262C36.752 21.4548 37.4705 21.7091 38.2462 21.7091C38.6034 21.7091 38.9548 21.6562 39.292 21.5505C39.6691 21.4334 39.8777 21.032 39.7605 20.6562C39.6434 20.2805 39.242 20.0705 38.8662 20.1877C38.6662 20.2505 38.4577 20.282 38.2462 20.282C37.102 20.282 36.1705 19.3505 36.1705 18.2062V18.0634C36.752 18.492 37.4705 18.7462 38.2462 18.7462C38.6034 18.7462 38.9548 18.6934 39.292 18.5877C39.6691 18.4705 39.8777 18.0691 39.7605 17.6934C39.6434 17.3177 39.242 17.1077 38.8662 17.2248C38.6662 17.2877 38.4577 17.3191 38.2462 17.3191C37.102 17.3191 36.1705 16.3877 36.1705 15.2434C36.1705 14.8491 35.8505 14.5291 35.4562 14.5291C35.062 14.5291 34.742 14.8491 34.742 15.2434C34.742 16.3877 33.8105 17.3191 32.6663 17.3191C32.4548 17.3191 32.2463 17.2877 32.0462 17.2248C31.6705 17.1077 31.2691 17.3177 31.152 17.6934C31.0348 18.0705 31.2448 18.4705 31.6205 18.5877C31.9577 18.6934 32.3105 18.7462 32.6663 18.7462C33.4434 18.7462 34.1605 18.492 34.742 18.0634V18.2062C34.742 19.3505 33.8105 20.282 32.6663 20.282C32.4548 20.282 32.2463 20.2505 32.0462 20.1877C31.6705 20.0705 31.2691 20.2805 31.152 20.6562C31.0348 21.0334 31.2448 21.4334 31.6205 21.5505C31.9577 21.6562 32.3105 21.7091 32.6663 21.7091C33.4434 21.7091 34.1605 21.4548 34.742 21.0262V21.1691C34.742 22.3134 33.8105 23.2448 32.6663 23.2448C32.4548 23.2448 32.2463 23.2134 32.0462 23.1505C31.6691 23.0334 31.2691 23.2434 31.152 23.6191C31.0348 23.9962 31.2448 24.3962 31.6205 24.5134C31.9591 24.6191 32.3105 24.672 32.6663 24.672C33.4434 24.672 34.1605 24.4177 34.742 23.9891V24.132C34.742 25.2762 33.8105 26.2077 32.6663 26.2077C32.4548 26.2077 32.2463 26.1763 32.0462 26.1134C31.6705 25.9948 31.2691 26.2048 31.152 26.582C31.0348 26.9591 31.2434 27.3591 31.6205 27.4762C31.9577 27.582 32.3105 27.6348 32.6677 27.6348C33.4448 27.6348 34.162 27.3805 34.7434 26.952V29.0748C33.212 29.592 31.7662 30.2962 30.4362 31.1634C30.2048 31.3134 29.9763 31.4691 29.752 31.6305L29.4205 31.1634L22.1477 20.8991L22.9962 19.7005C23.2705 19.3148 23.1791 18.7791 22.792 18.5063C22.4062 18.232 21.8705 18.3234 21.5962 18.7105L21.0962 19.4162L20.5948 18.7091C20.3205 18.3234 19.7863 18.232 19.3991 18.5063C19.0134 18.7805 18.922 19.3148 19.1948 19.702L20.0434 20.8991L12.7705 31.1634H10.9091C10.7348 30.2234 10.6377 29.2577 10.622 28.2705C10.4791 18.8391 17.7662 11.072 27.1891 10.6405C37.142 10.1848 45.3848 18.1505 45.3848 28.0048C45.3848 28.212 45.3805 28.4177 45.372 28.6234L45.3734 28.622Z" fill="#C97A4F"></path>
  </g>
  <defs>
    <clipPath id="clip0_9197_4049">
      <rect width="40" height="40" fill="white" transform="translate(8 8)"></rect>
    </clipPath>
  </defs>
</svg>
